<svg version="1.1" xmlns="http://www.w3.org/2000/svg" viewBox="0 0 256.15948269936894 185.45949822771354" width="256.15948269936894" height="185.45949822771354">
  <!-- svg-source:excalidraw -->
  
  <defs>
    <style class="style-fonts">
      @font-face {
        font-family: "Virgil";
        src: url("https://excalidraw.com/Virgil.woff2");
      }
      @font-face {
        font-family: "Cascadia";
        src: url("https://excalidraw.com/Cascadia.woff2");
      }
      @font-face {
        font-family: "Assistant";
        src: url("https://excalidraw.com/Assistant-Regular.woff2");
      }
    </style>
    
  </defs>
  <rect x="0" y="0" width="256.15948269936894" height="185.45949822771354" fill="#ffffff"></rect><g transform="translate(11.29123579548525 25.45949822771354) rotate(7.684460697647654 116.78850555419922 17.5)"><text x="0" y="24.528" font-family="Virgil, Segoe UI Emoji" font-size="28px" fill="#1e1e1e" text-anchor="start" style="white-space: pre;" direction="ltr" dominant-baseline="alphabetic">Drop image here </text></g><g transform="translate(114.29123579548525 61.45949822771354) rotate(0 -43.5 49)" stroke="none"><path fill="#1e1e1e" d="M 1.64,0.16 Q 1.64,0.16 1.31,3.03 0.97,5.90 0.82,8.52 0.67,11.13 0.01,15.50 -0.64,19.86 -1.21,23.69 -1.78,27.52 -2.33,30.06 -2.87,32.59 -3.38,35.64 -3.90,38.68 -4.71,41.50 -5.53,44.31 -6.11,46.11 -6.70,47.91 -7.22,49.77 -7.75,51.62 -8.59,53.90 -9.44,56.17 -10.01,57.76 -10.59,59.35 -11.45,61.18 -12.31,63.01 -12.89,64.39 -13.47,65.77 -13.95,67.17 -14.43,68.56 -15.28,70.15 -16.12,71.75 -16.74,72.78 -17.35,73.82 -17.78,74.93 -18.20,76.04 -19.10,77.36 -19.99,78.68 -20.53,79.67 -21.07,80.65 -21.56,81.65 -22.06,82.65 -23.49,84.53 -24.92,86.42 -26.29,87.49 -27.66,88.57 -29.44,89.97 -31.22,91.37 -32.76,92.49 -34.30,93.61 -35.31,94.17 -36.32,94.73 -37.98,95.07 -39.64,95.42 -40.99,95.99 -42.34,96.57 -43.70,96.76 -45.05,96.96 -46.55,97.02 -48.04,97.08 -49.83,97.09 -51.61,97.11 -52.87,97.08 -54.13,97.05 -55.88,97.07 -57.63,97.09 -59.58,97.10 -61.54,97.10 -63.24,97.11 -64.95,97.13 -66.36,97.15 -67.77,97.18 -68.97,97.21 -70.17,97.24 -71.81,97.65 -73.45,98.06 -74.89,98.55 -76.32,99.05 -77.46,99.36 -78.59,99.66 -80.15,99.95 -81.70,100.24 -84.27,100.83 -86.83,101.41 -87.38,101.35 -87.93,101.29 -88.43,101.05 -88.93,100.81 -89.33,100.43 -89.73,100.05 -89.99,99.56 -90.24,99.07 -90.33,98.52 -90.42,97.97 -90.32,97.43 -90.23,96.88 -89.97,96.39 -89.70,95.91 -89.30,95.53 -88.90,95.15 -88.39,94.92 -87.89,94.69 -87.34,94.64 -86.79,94.58 -86.25,94.70 -85.71,94.83 -85.24,95.11 -84.76,95.40 -84.41,95.83 -84.05,96.25 -83.85,96.77 -83.65,97.28 -83.62,97.83 -83.60,98.39 -83.75,98.92 -83.90,99.45 -84.21,99.91 -84.53,100.36 -84.97,100.70 -85.41,101.03 -85.94,101.20 -86.46,101.37 -87.02,101.37 -87.57,101.37 -88.09,101.19 -88.62,101.01 -89.06,100.67 -89.49,100.33 -89.80,99.87 -90.11,99.41 -90.25,98.88 -90.40,98.34 -90.36,97.79 -90.33,97.24 -90.12,96.72 -89.91,96.21 -89.55,95.79 -89.19,95.37 -88.72,95.09 -88.24,94.81 -87.70,94.69 -87.16,94.58 -87.16,94.58 -87.16,94.58 -86.04,94.59 -84.92,94.60 -82.96,94.00 -81.00,93.40 -79.07,92.91 -77.14,92.43 -76.00,92.05 -74.86,91.67 -73.66,91.21 -72.45,90.75 -71.31,90.75 -70.17,90.75 -68.97,90.78 -67.77,90.81 -66.36,90.84 -64.95,90.86 -63.24,90.88 -61.54,90.89 -59.58,90.89 -57.63,90.90 -55.88,90.92 -54.14,90.94 -52.88,90.91 -51.62,90.88 -49.86,90.89 -48.09,90.90 -46.74,90.92 -45.39,90.95 -44.17,90.90 -42.95,90.85 -40.92,90.31 -38.89,89.76 -37.28,88.92 -35.68,88.07 -34.09,87.04 -32.51,86.01 -31.64,85.31 -30.78,84.62 -29.75,83.79 -28.71,82.97 -27.50,81.65 -26.29,80.33 -25.67,79.29 -25.05,78.25 -24.32,77.14 -23.60,76.04 -22.87,75.15 -22.14,74.26 -20.80,72.08 -19.46,69.90 -18.68,68.55 -17.90,67.20 -17.25,65.73 -16.61,64.26 -15.90,62.96 -15.18,61.66 -14.36,59.90 -13.53,58.13 -12.84,56.66 -12.16,55.19 -11.38,52.99 -10.61,50.78 -10.03,48.86 -9.45,46.93 -8.78,45.25 -8.12,43.57 -7.35,40.90 -6.59,38.23 -6.08,35.13 -5.58,32.03 -5.07,29.57 -4.57,27.12 -4.03,23.28 -3.50,19.44 -2.90,15.22 -2.31,10.99 -2.22,8.29 -2.12,5.59 -1.88,2.71 -1.64,-0.16 -1.60,-0.35 -1.55,-0.55 -1.47,-0.73 -1.38,-0.91 -1.25,-1.06 -1.12,-1.21 -0.96,-1.33 -0.79,-1.44 -0.61,-1.52 -0.42,-1.59 -0.23,-1.62 -0.03,-1.65 0.16,-1.63 0.36,-1.61 0.55,-1.54 0.73,-1.48 0.90,-1.37 1.07,-1.26 1.20,-1.11 1.34,-0.96 1.43,-0.79 1.53,-0.61 1.58,-0.42 1.63,-0.23 1.64,-0.03 1.64,0.16 1.64,0.16 L 1.64,0.16 Z"></path></g><g transform="translate(28.29123579548525 137.45949822771354) rotate(0 8 19)" stroke="none"><path fill="#1e1e1e" d="M 2.22,0.31 Q 2.22,0.31 1.52,4.32 0.83,8.33 0.50,12.25 0.17,16.18 -0.28,19.09 -0.75,22.00 -0.89,23.76 -1.03,25.51 -1.01,26.82 -1.00,28.12 -0.88,29.60 -0.77,31.08 -0.66,32.15 -0.56,33.23 -0.43,34.74 -0.30,36.25 -0.34,35.11 -0.39,33.96 1.31,33.47 3.02,32.97 4.30,32.36 5.59,31.75 6.66,31.33 7.73,30.90 9.54,30.03 11.34,29.16 12.47,28.61 13.59,28.07 16.08,27.04 18.57,26.01 19.06,26.02 19.55,26.03 20.01,26.19 20.47,26.36 20.85,26.66 21.23,26.97 21.50,27.38 21.76,27.79 21.88,28.26 22.00,28.73 21.97,29.22 21.93,29.71 21.74,30.16 21.55,30.61 21.22,30.97 20.90,31.34 20.48,31.58 20.05,31.82 19.57,31.92 19.09,32.01 18.61,31.95 18.13,31.89 17.69,31.67 17.25,31.46 16.90,31.11 16.55,30.77 16.33,30.33 16.11,29.90 16.05,29.41 15.98,28.93 16.07,28.45 16.16,27.97 16.39,27.54 16.63,27.12 16.99,26.79 17.35,26.46 17.80,26.26 18.25,26.07 18.74,26.03 19.22,25.98 19.70,26.10 20.17,26.22 20.59,26.48 21.00,26.74 21.31,27.12 21.62,27.49 21.79,27.95 21.96,28.41 21.97,28.90 21.99,29.39 21.85,29.85 21.71,30.32 21.42,30.72 21.14,31.12 20.75,31.41 20.35,31.69 19.88,31.84 19.42,31.98 19.42,31.98 19.42,31.98 18.04,32.50 16.66,33.02 15.20,33.62 13.73,34.22 12.71,34.69 11.69,35.16 9.86,35.83 8.03,36.49 6.36,37.42 4.68,38.34 3.49,38.73 2.30,39.13 1.22,39.60 0.13,40.08 -1.61,40.10 -3.37,40.12 -4.53,38.18 -5.69,36.25 -5.56,34.73 -5.43,33.20 -5.31,32.10 -5.18,30.99 -4.98,29.46 -4.78,27.92 -4.63,26.56 -4.47,25.19 -4.28,23.37 -4.08,21.55 -3.77,18.75 -3.45,15.96 -3.29,11.86 -3.13,7.76 -2.67,3.72 -2.22,-0.31 -2.15,-0.57 -2.08,-0.84 -1.95,-1.07 -1.82,-1.31 -1.63,-1.51 -1.45,-1.71 -1.22,-1.86 -1.00,-2.01 -0.74,-2.10 -0.49,-2.19 -0.22,-2.22 0.04,-2.24 0.31,-2.20 0.58,-2.17 0.83,-2.06 1.08,-1.96 1.30,-1.80 1.52,-1.65 1.70,-1.44 1.87,-1.23 1.99,-0.99 2.11,-0.75 2.17,-0.48 2.23,-0.22 2.23,0.04 2.22,0.31 2.22,0.31 L 2.22,0.31 Z"></path></g></svg>