<svg width="305" height="100" viewBox="0 0 305 100" fill="none" xmlns="http://www.w3.org/2000/svg">
<rect width="305" height="100" fill="#1E1E1E"/>
<g clip-path="url(#clip0_0_1)">
<rect width="305" height="100" fill="white"/>
<path d="M149.713 53.9745C149.828 58.9348 149.625 63.6321 148.179 68.2113C144.719 79.1726 135.797 86.2258 124.802 86.6204C119.178 86.8222 113.665 86.3405 108.575 83.5397C101.607 79.7055 97.5223 73.5029 95.8298 65.5832C93.8546 56.3406 94.4627 47.4341 99.9129 39.4483C106.908 29.1986 121.915 26.1574 131.495 33.0645C132.991 34.1429 134.246 35.59 135.683 36.933C135.683 27.1193 135.683 17.2652 135.683 7.27473C140.377 7.27473 144.917 7.27473 149.713 7.27473C149.713 22.7301 149.713 38.2477 149.713 53.9745ZM109.095 57.171C109.606 60.1564 109.695 63.315 110.722 66.0896C112.586 71.1239 116.433 73.8162 121.623 74.0552C127.026 74.3039 131.156 71.9855 133.589 66.8232C136.143 61.4049 136.238 55.7962 134.038 50.2558C131.783 44.5765 127.32 41.7237 121.663 42.0088C116.212 42.2834 111.762 45.8338 110.056 51.4664C109.539 53.1723 109.407 55.0068 109.095 57.171Z" fill="#1E1E1E"/>
<path d="M68.4856 85.3569C61.5895 85.3569 54.8924 85.3569 48.1168 85.3569C48.1168 59.8318 48.1168 34.4102 48.1168 8.91376C61.806 8.91376 75.3884 8.91376 89.1142 8.91376C89.1142 12.3966 89.1142 15.8387 89.1142 19.4464C79.5282 19.4464 69.9297 19.4464 60.1758 19.4464C60.1758 26.393 60.1758 33.178 60.1758 40.1246C69.1801 40.1246 78.1801 40.1246 87.322 40.1246C87.322 43.6601 87.322 47.0395 87.322 50.6788C78.3029 50.6788 69.2654 50.6788 60.1271 50.6788C60.1271 58.7839 60.1271 66.631 60.1271 74.6577C69.7985 74.6577 79.3855 74.6577 89.1183 74.6577C89.1183 78.2716 89.1183 81.7089 89.1183 85.3569C82.3111 85.3569 75.4979 85.3569 68.4856 85.3569Z" fill="#1E1E1E"/>
<path d="M261.695 31.874C276.766 25.4657 293.066 31.6285 299.238 46.5141C306.456 63.9259 296.562 82.9733 279.174 86.1077C267.751 88.1669 257.791 85.0215 250.608 74.9845C241.129 61.738 244.192 40.2582 261.695 31.874ZM287.303 57.2541C287.225 56.4921 287.184 55.7234 287.061 54.9693C286.154 49.3899 283.628 44.9013 278.409 42.9393C273.293 41.0162 268.251 41.5922 264.184 45.7534C259.687 50.3546 258.934 56.2048 260.058 62.3878C262.045 73.3293 274.251 77.9154 282.292 70.7241C286.084 67.3327 287.296 62.6881 287.303 57.2541Z" fill="#1E1E1E"/>
<path d="M221.789 85.3562C219.358 85.1498 217.049 85.2549 214.906 84.6784C208.591 82.9792 205.148 77.7474 205.061 69.8645C204.978 62.4093 205.068 54.952 205.081 47.4956C205.084 46.1749 205.082 44.8541 205.082 43.37C202.145 43.37 199.319 43.37 196.362 43.37C196.362 39.1299 196.362 35.0504 196.362 30.7954C199.16 30.7954 201.986 30.7954 205.036 30.7954C205.036 26.1363 205.036 21.6462 205.036 17.0691C209.804 17.0691 214.346 17.0691 219.066 17.0691C219.066 21.5804 219.066 26.0087 219.066 30.6441C223.977 30.6441 228.714 30.6441 233.578 30.6441C233.578 34.9198 233.578 38.9867 233.578 43.2573C228.815 43.2573 224.074 43.2573 219.188 43.2573C219.152 44.0476 219.101 44.6467 219.101 45.2458C219.095 52.9122 219.095 60.5785 219.099 68.2449C219.1 71.7898 220.082 72.8009 223.504 72.8027C226.816 72.8045 230.128 72.8031 233.572 72.8031C233.572 76.9376 233.572 81.0094 233.572 85.3562C229.753 85.3562 225.87 85.3562 221.789 85.3562Z" fill="#1E1E1E"/>
<path d="M182.708 35.1884C182.708 51.9586 182.708 68.5263 182.708 85.226C177.992 85.226 173.384 85.226 168.483 85.226C168.483 84.1901 168.482 83.1072 168.483 82.0243C168.49 68.3713 168.525 54.7182 168.466 41.0655C168.459 39.5779 168.92 38.843 170.14 38.2197C173.944 36.2751 177.693 34.2125 181.469 32.2057C181.801 32.0291 182.168 31.9255 182.708 31.7142C182.708 32.9386 182.708 33.9623 182.708 35.1884Z" fill="#1E1E1E"/>
<path d="M16.7093 36.3853C19.7533 34.7005 22.6623 33.0787 25.7535 31.3554C25.7535 49.4117 25.7535 67.2565 25.7535 85.2283C21.2065 85.2283 16.6051 85.2283 11.7882 85.2283C11.7882 84.5696 11.7882 83.9045 11.7882 83.2395C11.7876 69.5155 11.8502 55.7909 11.7236 42.0683C11.7026 39.793 12.2335 38.4095 14.259 37.6469C15.0636 37.344 15.8043 36.8535 16.7093 36.3853Z" fill="#1E1E1E"/>
</g>
<defs>
<clipPath id="clip0_0_1">
<rect width="305" height="100" fill="white"/>
</clipPath>
</defs>
</svg>
