<svg version="1.1" id="Layer_1" xmlns="http://www.w3.org/2000/svg" xmlns:xlink="http://www.w3.org/1999/xlink" x="0px" y="0px"
	 width="100%" viewBox="0 0 766 239" enable-background="new 0 0 766 239" xml:space="preserve">
<path fill="#010101" opacity="1.000000" stroke="none" 
	d="
M484.000000,240.000000 
	C322.666687,240.000000 161.833374,240.000000 1.000043,240.000000 
	C1.000029,160.333359 1.000029,80.666725 1.000014,1.000065 
	C256.333282,1.000043 511.666534,1.000043 766.999878,1.000021 
	C766.999878,80.666603 766.999878,160.333206 766.999939,239.999908 
	C672.833313,240.000000 578.666687,240.000000 484.000000,240.000000 
M376.001068,128.499390 
	C376.001068,91.412102 376.001068,54.324821 376.001068,17.386602 
	C363.955078,17.386602 352.552277,17.386602 340.764343,17.386602 
	C340.764343,41.263756 340.764343,64.815125 340.764343,88.269943 
	C337.154327,85.060097 334.002411,81.601440 330.245880,79.024078 
	C306.185333,62.516174 268.497284,69.784752 250.928802,94.281433 
	C237.240707,113.367477 235.713562,134.653915 240.674225,156.743820 
	C244.924881,175.671936 255.184265,190.496246 272.683899,199.659821 
	C285.467377,206.353790 299.312042,207.504990 313.437103,207.022659 
	C341.050690,206.079742 363.458771,189.222595 372.148407,163.025009 
	C375.778534,152.080750 376.288666,140.854141 376.001068,128.499390 
M172.500000,204.003006 
	C189.611115,204.003006 206.722214,204.003006 223.818390,204.003006 
	C223.818390,195.284332 223.818390,187.069229 223.818390,178.431915 
	C199.374847,178.431915 175.297195,178.431915 151.007782,178.431915 
	C151.007782,159.248062 151.007782,140.493591 151.007782,121.122421 
	C173.958389,121.122421 196.655746,121.122421 219.307037,121.122421 
	C219.307037,112.424301 219.307037,104.347580 219.307037,95.897820 
	C196.347427,95.897820 173.744186,95.897820 151.130127,95.897820 
	C151.130127,79.295448 151.130127,63.079277 151.130127,46.477013 
	C175.626801,46.477013 199.733032,46.477013 223.808182,46.477013 
	C223.808182,37.854603 223.808182,29.627846 223.808182,21.303890 
	C189.336044,21.303890 155.224289,21.303890 120.844154,21.303890 
	C120.844154,82.240295 120.844154,142.998062 120.844154,204.003006 
	C137.860886,204.003006 154.680450,204.003006 172.500000,204.003006 
M656.875549,76.299202 
	C613.282654,96.217102 605.589783,147.553741 629.396790,179.212967 
	C647.435547,203.201416 672.449890,210.718826 701.139221,205.797379 
	C744.808533,198.306198 769.657715,152.782928 751.527832,111.168793 
	C736.028259,75.592140 695.091736,60.862904 656.875549,76.299202 
M557.513428,204.001404 
	C567.266602,204.001404 577.019714,204.001404 586.611328,204.001404 
	C586.611328,193.612534 586.611328,183.880966 586.611328,173.999420 
	C577.961975,173.999420 569.643250,174.002655 561.324463,173.998520 
	C552.729492,173.994232 550.265015,171.577652 550.260803,163.105270 
	C550.251709,144.782700 550.252502,126.460129 550.265625,108.137566 
	C550.266663,106.705658 550.394958,105.273849 550.486206,103.385025 
	C562.755737,103.385025 574.663513,103.385025 586.625000,103.385025 
	C586.625000,93.178284 586.625000,83.458267 586.625000,73.239334 
	C574.410278,73.239334 562.511963,73.239334 550.179932,73.239334 
	C550.179932,62.160717 550.179932,51.577183 550.179932,40.795143 
	C538.324646,40.795143 526.917236,40.795143 514.942505,40.795143 
	C514.942505,51.734459 514.942505,62.465847 514.942505,73.600914 
	C507.282166,73.600914 500.186493,73.600914 493.158844,73.600914 
	C493.158844,83.770531 493.158844,93.520370 493.158844,103.654373 
	C500.583923,103.654373 507.682007,103.654373 515.057495,103.654373 
	C515.057495,107.201378 515.062561,110.357925 515.056702,113.514458 
	C515.023315,131.335251 514.796631,149.158264 515.004517,166.976212 
	C515.224304,185.816177 523.870239,198.320251 539.732056,202.381332 
	C545.113708,203.759171 550.912292,203.508102 557.513428,204.001404 
M458.866486,83.616615 
	C458.866486,81.169907 458.866486,78.723198 458.866486,75.797005 
	C457.511230,76.302040 456.588409,76.549553 455.753876,76.971687 
	C446.272064,81.767998 436.855652,86.697601 427.301788,91.345062 
	C424.239349,92.834778 423.081055,94.591217 423.097351,98.146507 
	C423.246552,130.776428 423.158783,163.407455 423.140381,196.038147 
	C423.138947,198.626282 423.140167,201.214417 423.140167,203.690155 
	C435.448456,203.690155 447.021667,203.690155 458.866913,203.690155 
	C458.866913,163.777954 458.866913,124.180984 458.866486,83.616615 
M41.625580,87.111771 
	C39.692211,88.079933 37.831936,89.252098 35.811108,89.976166 
	C30.724173,91.798805 29.390856,95.105247 29.443586,100.543198 
	C29.761608,133.340347 29.604174,166.142105 29.605803,198.942322 
	C29.605883,200.531799 29.605812,202.121277 29.605812,203.695679 
	C41.703327,203.695679 53.259686,203.695679 64.679237,203.695679 
	C64.679237,160.742966 64.679237,118.093903 64.679237,74.939362 
	C56.915768,79.058151 49.610050,82.934090 41.625580,87.111771 
z"/>
<path fill="#FDFDFD" opacity="1.000000" stroke="none" 
	d="
M376.001068,128.999161 
	C376.288666,140.854141 375.778534,152.080750 372.148407,163.025009 
	C363.458771,189.222595 341.050690,206.079742 313.437103,207.022659 
	C299.312042,207.504990 285.467377,206.353790 272.683899,199.659821 
	C255.184265,190.496246 244.924881,175.671936 240.674225,156.743820 
	C235.713562,134.653915 237.240707,113.367477 250.928802,94.281433 
	C268.497284,69.784752 306.185333,62.516174 330.245880,79.024078 
	C334.002411,81.601440 337.154327,85.060097 340.764343,88.269943 
	C340.764343,64.815125 340.764343,41.263756 340.764343,17.386602 
	C352.552277,17.386602 363.955078,17.386602 376.001068,17.386602 
	C376.001068,54.324821 376.001068,91.412102 376.001068,128.999161 
M273.988922,136.638626 
	C275.273743,143.773895 275.495209,151.322906 278.075409,157.954147 
	C282.756958,169.986069 292.419281,176.420761 305.453308,176.991806 
	C319.023621,177.586349 329.394867,172.045334 335.506256,159.707458 
	C341.920746,146.757721 342.158112,133.352814 336.632904,120.111244 
	C330.969299,106.537888 319.761780,99.719704 305.553650,100.400932 
	C291.863739,101.057327 280.688446,109.542839 276.403229,123.004707 
	C275.105377,127.081757 274.773254,131.466232 273.988922,136.638626 
z"/>
<path fill="#FCFCFC" opacity="1.000000" stroke="none" 
	d="
M172.000000,204.003006 
	C154.680450,204.003006 137.860886,204.003006 120.844154,204.003006 
	C120.844154,142.998062 120.844154,82.240295 120.844154,21.303890 
	C155.224289,21.303890 189.336044,21.303890 223.808182,21.303890 
	C223.808182,29.627846 223.808182,37.854603 223.808182,46.477013 
	C199.733032,46.477013 175.626801,46.477013 151.130127,46.477013 
	C151.130127,63.079277 151.130127,79.295448 151.130127,95.897820 
	C173.744186,95.897820 196.347427,95.897820 219.307037,95.897820 
	C219.307037,104.347580 219.307037,112.424301 219.307037,121.122421 
	C196.655746,121.122421 173.958389,121.122421 151.007782,121.122421 
	C151.007782,140.493591 151.007782,159.248062 151.007782,178.431915 
	C175.297195,178.431915 199.374847,178.431915 223.818390,178.431915 
	C223.818390,187.069229 223.818390,195.284332 223.818390,204.003006 
	C206.722214,204.003006 189.611115,204.003006 172.000000,204.003006 
z"/>
<path fill="#FDFDFD" opacity="1.000000" stroke="none" 
	d="
M657.239624,76.178757 
	C695.091736,60.862904 736.028259,75.592140 751.527832,111.168793 
	C769.657715,152.782928 744.808533,198.306198 701.139221,205.797379 
	C672.449890,210.718826 647.435547,203.201416 629.396790,179.212967 
	C605.589783,147.553741 613.282654,96.217102 657.239624,76.178757 
M721.555359,136.837387 
	C721.357483,135.016220 721.254456,133.178864 720.946594,131.376511 
	C718.668457,118.041878 712.325684,107.314156 699.216797,102.624886 
	C686.368225,98.028740 673.705444,99.405243 663.491394,109.350693 
	C652.197510,120.347557 650.307312,134.329437 653.128296,149.106934 
	C658.120300,175.256989 688.775452,186.217804 708.968750,169.030655 
	C718.492004,160.925140 721.536499,149.824432 721.555359,136.837387 
z"/>
<path fill="#FDFDFD" opacity="1.000000" stroke="none" 
	d="
M557.016907,204.001404 
	C550.912292,203.508102 545.113708,203.759171 539.732056,202.381332 
	C523.870239,198.320251 515.224304,185.816177 515.004517,166.976212 
	C514.796631,149.158264 515.023315,131.335251 515.056702,113.514458 
	C515.062561,110.357925 515.057495,107.201378 515.057495,103.654373 
	C507.682007,103.654373 500.583923,103.654373 493.158844,103.654373 
	C493.158844,93.520370 493.158844,83.770531 493.158844,73.600914 
	C500.186493,73.600914 507.282166,73.600914 514.942505,73.600914 
	C514.942505,62.465847 514.942505,51.734459 514.942505,40.795143 
	C526.917236,40.795143 538.324646,40.795143 550.179932,40.795143 
	C550.179932,51.577183 550.179932,62.160717 550.179932,73.239334 
	C562.511963,73.239334 574.410278,73.239334 586.625000,73.239334 
	C586.625000,83.458267 586.625000,93.178284 586.625000,103.385025 
	C574.663513,103.385025 562.755737,103.385025 550.486206,103.385025 
	C550.394958,105.273849 550.266663,106.705658 550.265625,108.137566 
	C550.252502,126.460129 550.251709,144.782700 550.260803,163.105270 
	C550.265015,171.577652 552.729492,173.994232 561.324463,173.998520 
	C569.643250,174.002655 577.961975,173.999420 586.611328,173.999420 
	C586.611328,183.880966 586.611328,193.612534 586.611328,204.001404 
	C577.019714,204.001404 567.266602,204.001404 557.016907,204.001404 
z"/>
<path fill="#FBFBFB" opacity="1.000000" stroke="none" 
	d="
M458.866699,84.100311 
	C458.866913,124.180984 458.866913,163.777954 458.866913,203.690155 
	C447.021667,203.690155 435.448456,203.690155 423.140167,203.690155 
	C423.140167,201.214417 423.138947,198.626282 423.140381,196.038147 
	C423.158783,163.407455 423.246552,130.776428 423.097351,98.146507 
	C423.081055,94.591217 424.239349,92.834778 427.301788,91.345062 
	C436.855652,86.697601 446.272064,81.767998 455.753876,76.971687 
	C456.588409,76.549553 457.511230,76.302040 458.866486,75.797005 
	C458.866486,78.723198 458.866486,81.169907 458.866699,84.100311 
z"/>
<path fill="#FFFFFF" opacity="1.000000" stroke="none" 
	d="
M41.964958,86.960892 
	C49.610050,82.934090 56.915768,79.058151 64.679237,74.939362 
	C64.679237,118.093903 64.679237,160.742966 64.679237,203.695679 
	C53.259686,203.695679 41.703327,203.695679 29.605812,203.695679 
	C29.605812,202.121277 29.605883,200.531799 29.605803,198.942322 
	C29.604174,166.142105 29.761608,133.340347 29.443586,100.543198 
	C29.390856,95.105247 30.724173,91.798805 35.811108,89.976166 
	C37.831936,89.252098 39.692211,88.079933 41.964958,86.960892 
z"/>
<path fill="#020202" opacity="1.000000" stroke="none" 
	d="
M273.993835,136.174255 
	C274.773254,131.466232 275.105377,127.081757 276.403229,123.004707 
	C280.688446,109.542839 291.863739,101.057327 305.553650,100.400932 
	C319.761780,99.719704 330.969299,106.537888 336.632904,120.111244 
	C342.158112,133.352814 341.920746,146.757721 335.506256,159.707458 
	C329.394867,172.045334 319.023621,177.586349 305.453308,176.991806 
	C292.419281,176.420761 282.756958,169.986069 278.075409,157.954147 
	C275.495209,151.322906 275.273743,143.773895 273.993835,136.174255 
z"/>
<path fill="#020202" opacity="1.000000" stroke="none" 
	d="
M721.571167,137.271606 
	C721.536499,149.824432 718.492004,160.925140 708.968750,169.030655 
	C688.775452,186.217804 658.120300,175.256989 653.128296,149.106934 
	C650.307312,134.329437 652.197510,120.347557 663.491394,109.350693 
	C673.705444,99.405243 686.368225,98.028740 699.216797,102.624886 
	C712.325684,107.314156 718.668457,118.041878 720.946594,131.376511 
	C721.254456,133.178864 721.357483,135.016220 721.571167,137.271606 
z"/>
</svg>