<svg width="305" height="100" viewBox="0 0 305 100" fill="none" xmlns="http://www.w3.org/2000/svg">
<rect width="305" height="100" fill="#1E1E1E"/>
<g clip-path="url(#clip0_0_1)">
<rect width="305" height="100" fill="white"/>
<g filter="url(#filter0_d_0_1)">
<path d="M149.914 53.6998C150.028 58.6601 149.825 63.3574 148.38 67.9366C144.92 78.8979 135.998 85.9511 125.003 86.3456C119.378 86.5474 113.866 86.0658 108.776 83.2649C101.808 79.4308 97.7229 73.2282 96.0304 65.3085C94.0552 56.0658 94.6633 47.1594 100.114 39.1736C107.109 28.9239 122.115 25.8827 131.695 32.7897C133.191 33.8681 134.446 35.3153 135.884 36.6583C135.884 26.8446 135.884 16.9904 135.884 7C140.577 7 145.117 7 149.914 7C149.914 22.4553 149.914 37.973 149.914 53.6998ZM109.295 56.8962C109.807 59.8817 109.895 63.0403 110.923 65.8149C112.787 70.8492 116.634 73.5415 121.824 73.7804C127.227 74.0292 131.357 71.7108 133.79 66.5485C136.344 61.1302 136.439 55.5214 134.239 49.981C131.983 44.3018 127.521 41.449 121.864 41.734C116.413 42.0087 111.963 45.5591 110.257 51.1917C109.74 52.8976 109.608 54.7321 109.295 56.8962Z" fill="url(#paint0_linear_0_1)"/>
</g>
<g filter="url(#filter1_d_0_1)">
<path d="M60.3688 85.4431C53.4727 85.4431 46.7756 85.4431 40 85.4431C40 59.9181 40 34.4964 40 9C53.6892 9 67.2716 9 80.9974 9C80.9974 12.4828 80.9974 15.925 80.9974 19.5327C71.4114 19.5327 61.8129 19.5327 52.059 19.5327C52.059 26.4792 52.059 33.2643 52.059 40.2109C61.0633 40.2109 70.0633 40.2109 79.2052 40.2109C79.2052 43.7463 79.2052 47.1257 79.2052 50.7651C70.1861 50.7651 61.1486 50.7651 52.0103 50.7651C52.0103 58.8702 52.0103 66.7172 52.0103 74.7439C61.6817 74.7439 71.2687 74.7439 81.0015 74.7439C81.0015 78.3579 81.0015 81.7952 81.0015 85.4431C74.1943 85.4431 67.3811 85.4431 60.3688 85.4431Z" fill="url(#paint1_linear_0_1)"/>
</g>
<g filter="url(#filter2_d_0_1)">
<path d="M259.361 31.5178C274.433 25.1095 290.733 31.2724 296.904 46.158C304.123 63.5698 294.229 82.6172 276.841 85.7515C265.418 87.8107 255.458 84.6654 248.275 74.6284C238.796 61.3818 241.859 39.9021 259.361 31.5178ZM284.97 56.898C284.891 56.136 284.85 55.3672 284.728 54.6131C283.82 49.0338 281.295 44.5452 276.075 42.5831C270.959 40.6601 265.917 41.236 261.851 45.3973C257.354 49.9985 256.601 55.8486 257.724 62.0317C259.712 72.9731 271.918 77.5593 279.958 70.368C283.75 66.9765 284.962 62.3319 284.97 56.898Z" fill="url(#paint2_linear_0_1)"/>
</g>
<g filter="url(#filter3_d_0_1)">
<path d="M217.427 85.2871C214.996 85.0807 212.687 85.1858 210.544 84.6093C204.228 82.9101 200.786 77.6783 200.698 69.7954C200.616 62.3402 200.706 54.8829 200.719 47.4265C200.721 46.1058 200.719 44.785 200.719 43.3009C197.783 43.3009 194.956 43.3009 192 43.3009C192 39.0608 192 34.9813 192 30.7263C194.798 30.7263 197.624 30.7263 200.674 30.7263C200.674 26.0672 200.674 21.5771 200.674 17C205.442 17 209.984 17 214.704 17C214.704 21.5113 214.704 25.9396 214.704 30.575C219.614 30.575 224.352 30.575 229.216 30.575C229.216 34.8507 229.216 38.9176 229.216 43.1882C224.453 43.1882 219.712 43.1882 214.826 43.1882C214.79 43.9785 214.739 44.5776 214.738 45.1767C214.733 52.8431 214.733 60.5094 214.736 68.1758C214.738 71.7207 215.719 72.7318 219.142 72.7336C222.454 72.7354 225.766 72.734 229.21 72.734C229.21 76.8685 229.21 80.9403 229.21 85.2871C225.391 85.2871 221.508 85.2871 217.427 85.2871Z" fill="url(#paint3_linear_0_1)"/>
</g>
<g filter="url(#filter4_d_0_1)">
<path d="M178.242 35.4742C178.243 52.2443 178.243 68.8121 178.243 85.5118C173.526 85.5118 168.918 85.5118 164.017 85.5118C164.017 84.4759 164.017 83.393 164.017 82.3101C164.025 68.6571 164.059 55.0039 164 41.3513C163.994 39.8637 164.455 39.1288 165.674 38.5055C169.478 36.5609 173.228 34.4983 177.003 32.4915C177.335 32.3149 177.703 32.2113 178.242 32C178.242 33.2243 178.242 34.2481 178.242 35.4742Z" fill="url(#paint4_linear_0_1)"/>
</g>
<g filter="url(#filter5_d_0_1)">
<path d="M16.7093 36.0299C19.7533 34.3451 22.6623 32.7233 25.7535 31C25.7535 49.0563 25.7535 66.9011 25.7535 84.8729C21.2065 84.8729 16.6051 84.8729 11.7882 84.8729C11.7882 84.2142 11.7882 83.5491 11.7882 82.8841C11.7876 69.1601 11.8502 55.4356 11.7236 41.7129C11.7026 39.4376 12.2335 38.0542 14.259 37.2915C15.0636 36.9886 15.8043 36.4981 16.7093 36.0299Z" fill="url(#paint5_linear_0_1)"/>
</g>
</g>
<defs>
<filter id="filter0_d_0_1" x="91" y="7" width="62.9408" height="87.3861" filterUnits="userSpaceOnUse" color-interpolation-filters="sRGB">
<feFlood flood-opacity="0" result="BackgroundImageFix"/>
<feColorMatrix in="SourceAlpha" type="matrix" values="0 0 0 0 0 0 0 0 0 0 0 0 0 0 0 0 0 0 127 0" result="hardAlpha"/>
<feOffset dy="4"/>
<feGaussianBlur stdDeviation="2"/>
<feComposite in2="hardAlpha" operator="out"/>
<feColorMatrix type="matrix" values="0 0 0 0 0 0 0 0 0 0 0 0 0 0 0 0 0 0 0.25 0"/>
<feBlend mode="normal" in2="BackgroundImageFix" result="effect1_dropShadow_0_1"/>
<feBlend mode="normal" in="SourceGraphic" in2="effect1_dropShadow_0_1" result="shape"/>
</filter>
<filter id="filter1_d_0_1" x="36" y="9" width="49.0015" height="84.4431" filterUnits="userSpaceOnUse" color-interpolation-filters="sRGB">
<feFlood flood-opacity="0" result="BackgroundImageFix"/>
<feColorMatrix in="SourceAlpha" type="matrix" values="0 0 0 0 0 0 0 0 0 0 0 0 0 0 0 0 0 0 127 0" result="hardAlpha"/>
<feOffset dy="4"/>
<feGaussianBlur stdDeviation="2"/>
<feComposite in2="hardAlpha" operator="out"/>
<feColorMatrix type="matrix" values="0 0 0 0 0 0 0 0 0 0 0 0 0 0 0 0 0 0 0.25 0"/>
<feBlend mode="normal" in2="BackgroundImageFix" result="effect1_dropShadow_0_1"/>
<feBlend mode="normal" in="SourceGraphic" in2="effect1_dropShadow_0_1" result="shape"/>
</filter>
<filter id="filter2_d_0_1" x="239" y="29" width="64.2874" height="65.3501" filterUnits="userSpaceOnUse" color-interpolation-filters="sRGB">
<feFlood flood-opacity="0" result="BackgroundImageFix"/>
<feColorMatrix in="SourceAlpha" type="matrix" values="0 0 0 0 0 0 0 0 0 0 0 0 0 0 0 0 0 0 127 0" result="hardAlpha"/>
<feOffset dy="4"/>
<feGaussianBlur stdDeviation="2"/>
<feComposite in2="hardAlpha" operator="out"/>
<feColorMatrix type="matrix" values="0 0 0 0 0 0 0 0 0 0 0 0 0 0 0 0 0 0 0.25 0"/>
<feBlend mode="normal" in2="BackgroundImageFix" result="effect1_dropShadow_0_1"/>
<feBlend mode="normal" in="SourceGraphic" in2="effect1_dropShadow_0_1" result="shape"/>
</filter>
<filter id="filter3_d_0_1" x="188" y="17" width="45.2156" height="76.2871" filterUnits="userSpaceOnUse" color-interpolation-filters="sRGB">
<feFlood flood-opacity="0" result="BackgroundImageFix"/>
<feColorMatrix in="SourceAlpha" type="matrix" values="0 0 0 0 0 0 0 0 0 0 0 0 0 0 0 0 0 0 127 0" result="hardAlpha"/>
<feOffset dy="4"/>
<feGaussianBlur stdDeviation="2"/>
<feComposite in2="hardAlpha" operator="out"/>
<feColorMatrix type="matrix" values="0 0 0 0 0 0 0 0 0 0 0 0 0 0 0 0 0 0 0.25 0"/>
<feBlend mode="normal" in2="BackgroundImageFix" result="effect1_dropShadow_0_1"/>
<feBlend mode="normal" in="SourceGraphic" in2="effect1_dropShadow_0_1" result="shape"/>
</filter>
<filter id="filter4_d_0_1" x="160" y="32" width="22.2425" height="61.5118" filterUnits="userSpaceOnUse" color-interpolation-filters="sRGB">
<feFlood flood-opacity="0" result="BackgroundImageFix"/>
<feColorMatrix in="SourceAlpha" type="matrix" values="0 0 0 0 0 0 0 0 0 0 0 0 0 0 0 0 0 0 127 0" result="hardAlpha"/>
<feOffset dy="4"/>
<feGaussianBlur stdDeviation="2"/>
<feComposite in2="hardAlpha" operator="out"/>
<feColorMatrix type="matrix" values="0 0 0 0 0 0 0 0 0 0 0 0 0 0 0 0 0 0 0.25 0"/>
<feBlend mode="normal" in2="BackgroundImageFix" result="effect1_dropShadow_0_1"/>
<feBlend mode="normal" in="SourceGraphic" in2="effect1_dropShadow_0_1" result="shape"/>
</filter>
<filter id="filter5_d_0_1" x="7.72302" y="31" width="22.0305" height="61.8729" filterUnits="userSpaceOnUse" color-interpolation-filters="sRGB">
<feFlood flood-opacity="0" result="BackgroundImageFix"/>
<feColorMatrix in="SourceAlpha" type="matrix" values="0 0 0 0 0 0 0 0 0 0 0 0 0 0 0 0 0 0 127 0" result="hardAlpha"/>
<feOffset dy="4"/>
<feGaussianBlur stdDeviation="2"/>
<feComposite in2="hardAlpha" operator="out"/>
<feColorMatrix type="matrix" values="0 0 0 0 0 0 0 0 0 0 0 0 0 0 0 0 0 0 0.25 0"/>
<feBlend mode="normal" in2="BackgroundImageFix" result="effect1_dropShadow_0_1"/>
<feBlend mode="normal" in="SourceGraphic" in2="effect1_dropShadow_0_1" result="shape"/>
</filter>
<linearGradient id="paint0_linear_0_1" x1="122.47" y1="7" x2="122.47" y2="86.3861" gradientUnits="userSpaceOnUse">
<stop stop-color="#210344"/>
<stop offset="0.5" stop-color="#37150A"/>
<stop offset="1" stop-color="#8B5D22"/>
</linearGradient>
<linearGradient id="paint1_linear_0_1" x1="60.5007" y1="9" x2="60.5007" y2="85.4431" gradientUnits="userSpaceOnUse">
<stop stop-color="#210344"/>
<stop offset="0.5" stop-color="#37150A"/>
<stop offset="1" stop-color="#8B5D22"/>
</linearGradient>
<linearGradient id="paint2_linear_0_1" x1="271.144" y1="29" x2="271.144" y2="86.3501" gradientUnits="userSpaceOnUse">
<stop stop-color="#210344"/>
<stop offset="0.5" stop-color="#37150A"/>
<stop offset="1" stop-color="#8B5D22"/>
</linearGradient>
<linearGradient id="paint3_linear_0_1" x1="210.608" y1="17" x2="210.608" y2="85.2871" gradientUnits="userSpaceOnUse">
<stop stop-color="#210344"/>
<stop offset="0.5" stop-color="#37150A"/>
<stop offset="1" stop-color="#8B5D22"/>
</linearGradient>
<linearGradient id="paint4_linear_0_1" x1="171.121" y1="32" x2="171.121" y2="85.5118" gradientUnits="userSpaceOnUse">
<stop stop-color="#210344"/>
<stop offset="0.5" stop-color="#37150A"/>
<stop offset="1" stop-color="#8B5D22"/>
</linearGradient>
<linearGradient id="paint5_linear_0_1" x1="18.7382" y1="31" x2="18.7382" y2="84.8729" gradientUnits="userSpaceOnUse">
<stop stop-color="#210344"/>
<stop offset="0.5" stop-color="#37150A"/>
<stop offset="1" stop-color="#8B5D22"/>
</linearGradient>
<clipPath id="clip0_0_1">
<rect width="305" height="100" fill="white"/>
</clipPath>
</defs>
</svg>
